<?xml version="1.0" encoding="UTF-8" standalone="no"?>
<!-- Created with Inkscape (http://www.inkscape.org/) -->

<svg
   width="6.3499908mm"
   height="6.3499937mm"
   viewBox="0 0 6.3499908 6.3499937"
   version="1.1"
   id="svg5"
   xml:space="preserve"
   xmlns:inkscape="http://www.inkscape.org/namespaces/inkscape"
   xmlns:sodipodi="http://sodipodi.sourceforge.net/DTD/sodipodi-0.dtd"
   xmlns="http://www.w3.org/2000/svg"
   xmlns:svg="http://www.w3.org/2000/svg"><sodipodi:namedview
     id="namedview7"
     pagecolor="#ffffff"
     bordercolor="#000000"
     borderopacity="0.25"
     inkscape:showpageshadow="2"
     inkscape:pageopacity="0.0"
     inkscape:pagecheckerboard="0"
     inkscape:deskcolor="#d1d1d1"
     inkscape:document-units="mm"
     showgrid="false" /><defs
     id="defs2" /><path
     d="m 3.1749949,0 c -0.62795,0 -1.24181,0.18621058 -1.76393,0.53508277 -0.52212996,0.3488743 -0.92907996,0.84474053 -1.16938996,1.42489773 -0.2403,0.5801545 -0.30318,1.2185385 -0.18067,1.8344356 0.12251,0.6158971 0.42489,1.1816028 0.86893,1.625653 0.44402996,0.4440238 1.00975996,0.7464161 1.62564996,0.8689182 0.61589,0.122502 1.25428,0.059637 1.83443,-0.180684 0.58015,-0.2402946 1.07603,-0.6472502 1.42489,-1.169379 0.34888,-0.5221288 0.53509,-1.1359621 0.53509,-1.7639242 -9.5e-4,-0.8417693 -0.33578,-1.6487828 -0.93099,-2.24400276 C 4.8237749,0.33577743 4.0167649,9.6037403e-4 3.1749949,0 Z m -1.36071,5.5283631 V 5.2160754 c 1.8e-4,-0.180393 0.0719,-0.3533511 0.19947,-0.4808803 0.12755,-0.1275556 0.3005,-0.1993106 0.48089,-0.1994693 h 1.3607 c 0.18039,1.587e-4 0.35335,0.071914 0.48091,0.1994693 0.12753,0.1275292 0.19928,0.3004873 0.19947,0.4808803 v 0.3122877 c -0.41297,0.2411148 -0.88255,0.3681677 -1.36073,0.3681677 -0.47818,0 -0.94777,-0.1270529 -1.36071,-0.3681677 z m 3.17319,-0.3290623 c -0.00453,-0.2974711 -0.12573,-0.5812632 -0.33748,-0.7902311 -0.21177,-0.2089679 -0.49715,-0.3263635 -0.79465,-0.3269192 h -1.3607 c -0.29751,5.557e-4 -0.58288,0.1179513 -0.79464,0.3269192 -0.21176,0.2089679 -0.33296,0.49276 -0.33748,0.7902311 C 0.95126494,4.8320591 0.66124494,4.348586 0.53086494,3.8128841 c -0.13038,-0.5357284 -0.095,-1.0984178 0.10156,-1.6135483 0.19651,-0.5151411 0.54486996,-0.9584399 0.99891996,-1.27120125 0.45406,-0.31275868 0.99241,-0.4802267 1.54376,-0.4802267 0.55136,0 1.08971,0.16746802 1.54376,0.4802267 0.45405,0.31276135 0.8024,0.75606015 0.99893,1.27120125 0.19651,0.5151305 0.23194,1.0778199 0.10155,1.6135483 -0.13036,0.5357019 -0.42039,1.019175 -0.83166,1.3864167 z"
     fill="#8a53ff"
     id="path9"
     style="stroke-width:0.264583"
     inkscape:export-filename="Profile.svg"
     inkscape:export-xdpi="96"
     inkscape:export-ydpi="96" /><path
     d="m 3.1645849,1.3325814 c -0.22427,0 -0.44351,0.066504 -0.62998,0.1911014 -0.18648,0.1245986 -0.33181,0.3016922 -0.41764,0.5088927 -0.0858,0.2071979 -0.10828,0.435192 -0.0645,0.6551534 0.0437,0.2199587 0.15175,0.4220078 0.31033,0.5805884 0.15858,0.1585833 0.36063,0.266581 0.58059,0.3103325 0.21996,0.043754 0.44795,0.021299 0.65515,-0.064527 0.2072,-0.085826 0.38429,-0.2311638 0.50889,-0.4176369 0.1246,-0.186473 0.1911,-0.4057068 0.1911,-0.6299756 0,-0.3007387 -0.11946,-0.5891557 -0.33212,-0.8018092 -0.21265,-0.2126531 -0.50107,-0.3321201 -0.8018,-0.3321201 z m 0,1.8142842 c -0.13457,0 -0.26611,-0.039902 -0.37799,-0.1146598 -0.11189,-0.074758 -0.19909,-0.1810147 -0.25058,-0.3053345 -0.0515,-0.1243197 -0.065,-0.2611173 -0.0387,-0.3930914 0.0263,-0.1319769 0.091,-0.2532063 0.1862,-0.3483558 0.0951,-0.09515 0.21638,-0.1599459 0.34835,-0.1861979 0.13198,-0.026252 0.26878,-0.012779 0.3931,0.038717 0.12432,0.051493 0.23057,0.1386973 0.30533,0.2505816 0.0748,0.1118844 0.11466,0.2434247 0.11466,0.3779864 -1.8e-4,0.180385 -0.0719,0.3533326 -0.19947,0.4808856 -0.12755,0.1275529 -0.3005,0.1992894 -0.48088,0.1994693 z"
     fill="#8a53ff"
     id="path24"
     style="stroke-width:0.264583" /></svg>
